<?xml version="1.0" encoding="utf-8"?>
<!-- Generator: Adobe Illustrator 22.1.0, SVG Export Plug-In . SVG Version: 6.00 Build 0)  -->
<svg version="1.1" id="Layer_1" focusable="false" xmlns="http://www.w3.org/2000/svg" xmlns:xlink="http://www.w3.org/1999/xlink"
	 x="0px" y="0px" viewBox="0 0 512 512" style="enable-background:new 0 0 512 512;" xml:space="preserve">
<style type="text/css">
	.st0{opacity:0.14;}
	.st1{fill:#FFFFFF;}
	.st2{fill:none;stroke:#000000;stroke-width:16;stroke-miterlimit:10;}
	.st3{fill:none;stroke:#000000;stroke-width:16;stroke-miterlimit:10;stroke-dasharray:11.8148,11.8148;}
	.st4{fill:none;stroke:#000000;stroke-width:16;stroke-miterlimit:10;stroke-dasharray:12.1026,12.1026;}
	.st5{fill:#FFFFFF;stroke:#000000;stroke-width:16;stroke-miterlimit:10;stroke-dasharray:12;}
</style>
<path d="M352.3,38.6H159.7c-12.3,0-22.2,10-22.2,22.3v163.3c0,12.3,10,22.3,22.2,22.3h192.6c12.3,0,22.2-10,22.2-22.3V60.8
	C374.5,48.6,364.5,38.6,352.3,38.6z M159.7,66.4c0-3.1,2.5-5.6,5.6-5.6h18.5c3.1,0,5.6,2.5,5.6,5.6v11.1c0,3.1-2.5,5.6-5.6,5.6
	h-18.5c-3.1,0-5.6-2.5-5.6-5.6V66.4z M352.3,221.3c0,1.5-1.2,2.8-2.8,2.8h-187c-1.5,0-2.8-1.3-2.8-2.8V101.7h192.6V221.3z
	 M352.3,77.5c0,3.1-2.5,5.6-5.6,5.6H217.1c-3.1,0-5.6-2.5-5.6-5.6V66.4c0-3.1,2.5-5.6,5.6-5.6h129.6c3.1,0,5.6,2.5,5.6,5.6V77.5z"/>
<path d="M353.5,278h-195c-12.4,0-22.5,9.8-22.5,21.9v160.3c0,12.1,10.1,21.9,22.5,21.9h195c12.4,0,22.5-9.8,22.5-21.9V299.9
	C376,287.8,365.9,278,353.5,278z M158.5,305.3c0-3,2.5-5.5,5.6-5.5h18.8c3.1,0,5.6,2.5,5.6,5.5v10.9c0,3-2.5,5.5-5.6,5.5h-18.8
	c-3.1,0-5.6-2.5-5.6-5.5V305.3z M353.5,457.4c0,1.5-1.3,2.7-2.8,2.7H161.3c-1.5,0-2.8-1.2-2.8-2.7V339.9h195V457.4z M353.5,316.3
	c0,3-2.5,5.5-5.6,5.5H216.6c-3.1,0-5.6-2.5-5.6-5.5v-10.9c0-3,2.5-5.5,5.6-5.5h131.3c3.1,0,5.6,2.5,5.6,5.5V316.3z"/>
<g class="st0">
	<rect x="92" y="15" class="st1" width="331" height="484"/>
	<g>
		<polyline class="st2" points="423,493 423,499 417,499 		"/>
		<line class="st3" x1="405.2" y1="499" x2="103.9" y2="499"/>
		<polyline class="st2" points="98,499 92,499 92,493 		"/>
		<line class="st4" x1="92" y1="480.9" x2="92" y2="27.1"/>
		<polyline class="st2" points="92,21 92,15 98,15 		"/>
		<line class="st3" x1="109.8" y1="15" x2="411.1" y2="15"/>
		<polyline class="st2" points="417,15 423,15 423,21 		"/>
		<line class="st4" x1="423" y1="33.1" x2="423" y2="486.9"/>
	</g>
</g>
<polygon class="st5" points="724,218 724,218 724,218 724,218 "/>
</svg>
